<svg id="svg" version="1.1" xmlns="http://www.w3.org/2000/svg" xmlns:xlink="http://www.w3.org/1999/xlink" width="400" height="400" viewBox="0, 0, 400,400"><g id="svgg"><path id="path0" d="M235.800 67.200 C 235.664 67.420,235.023 67.600,234.376 67.600 C 233.729 67.600,233.200 67.780,233.200 68.000 C 233.200 68.220,232.922 68.400,232.582 68.400 C 231.249 68.400,228.934 71.742,228.303 74.576 C 227.602 77.731,227.526 78.707,227.962 78.976 C 228.203 79.125,228.400 79.678,228.400 80.205 C 228.400 81.338,229.186 83.200,229.664 83.200 C 229.849 83.200,230.000 83.436,230.000 83.725 C 230.000 84.371,232.065 86.400,232.722 86.400 C 232.985 86.400,233.200 86.580,233.200 86.800 C 233.200 87.020,233.549 87.200,233.976 87.200 C 234.403 87.200,234.864 87.380,235.000 87.600 C 235.136 87.820,236.756 88.000,238.600 88.000 C 240.444 88.000,242.064 88.180,242.200 88.400 C 242.336 88.620,243.056 88.800,243.800 88.800 C 244.544 88.800,245.264 88.980,245.400 89.200 C 245.536 89.420,245.999 89.600,246.429 89.600 C 246.859 89.600,247.523 89.769,247.905 89.976 C 248.287 90.183,249.365 90.668,250.300 91.053 C 251.235 91.439,252.000 91.899,252.000 92.077 C 252.000 92.255,252.276 92.400,252.613 92.400 C 252.951 92.400,253.835 92.985,254.578 93.700 C 255.322 94.415,256.351 95.381,256.865 95.846 C 258.350 97.189,259.838 98.998,260.487 100.247 C 262.085 103.325,262.948 105.088,263.303 106.000 C 263.518 106.550,263.852 107.313,264.047 107.695 C 264.241 108.077,264.400 109.022,264.400 109.795 C 264.400 110.568,264.580 111.200,264.800 111.200 C 265.042 111.200,265.200 112.933,265.200 115.600 C 265.200 118.267,265.042 120.000,264.800 120.000 C 264.580 120.000,264.400 120.709,264.400 121.576 C 264.400 122.443,264.220 123.264,264.000 123.400 C 263.780 123.536,263.600 124.087,263.600 124.624 C 263.600 125.161,263.420 125.600,263.200 125.600 C 262.980 125.600,262.800 125.925,262.800 126.322 C 262.800 126.719,262.260 127.895,261.600 128.936 C 260.940 129.976,260.400 131.014,260.400 131.242 C 260.400 131.803,252.577 139.600,252.014 139.600 C 251.768 139.600,251.180 139.960,250.708 140.400 C 250.236 140.840,249.613 141.200,249.325 141.200 C 249.036 141.200,248.800 141.380,248.800 141.600 C 248.800 141.820,248.350 142.000,247.800 142.000 C 247.250 142.000,246.800 142.180,246.800 142.400 C 246.800 142.620,246.386 142.800,245.880 142.800 C 245.374 142.800,244.735 143.025,244.460 143.300 C 244.099 143.661,242.058 143.800,237.114 143.800 C 231.992 143.800,230.225 143.674,230.100 143.300 C 230.008 143.025,229.408 142.800,228.767 142.800 C 228.125 142.800,227.600 142.620,227.600 142.400 C 227.600 142.180,227.240 142.000,226.800 142.000 C 226.360 142.000,226.000 141.820,226.000 141.600 C 226.000 141.380,225.730 141.200,225.400 141.200 C 225.070 141.200,224.800 141.020,224.800 140.800 C 224.800 140.580,224.480 140.400,224.088 140.400 C 223.697 140.400,223.117 140.040,222.800 139.600 C 222.483 139.160,222.025 138.800,221.782 138.800 C 221.540 138.800,220.378 137.900,219.200 136.800 C 218.022 135.700,216.820 134.800,216.529 134.800 C 216.238 134.800,216.000 134.620,216.000 134.400 C 216.000 134.180,215.640 134.000,215.200 134.000 C 214.760 134.000,214.400 133.820,214.400 133.600 C 214.400 132.803,208.288 133.133,206.431 134.031 C 203.901 135.253,201.200 138.229,201.200 139.795 C 201.200 140.128,201.020 140.400,200.800 140.400 C 200.565 140.400,200.400 141.800,200.400 143.800 C 200.400 145.800,200.565 147.200,200.800 147.200 C 201.020 147.200,201.200 147.560,201.200 148.000 C 201.200 148.440,201.380 148.800,201.600 148.800 C 201.820 148.800,202.000 149.056,202.000 149.369 C 202.000 149.962,205.085 153.200,205.650 153.200 C 205.828 153.200,206.603 153.830,207.373 154.600 C 208.143 155.370,209.030 156.000,209.344 156.000 C 209.658 156.000,210.011 156.251,210.128 156.558 C 210.246 156.864,211.210 157.539,212.271 158.058 C 213.332 158.576,214.260 159.135,214.333 159.300 C 214.407 159.465,214.812 159.600,215.233 159.600 C 215.655 159.600,216.000 159.780,216.000 160.000 C 216.000 160.220,216.349 160.400,216.776 160.400 C 217.203 160.400,217.664 160.580,217.800 160.800 C 217.936 161.020,218.487 161.200,219.024 161.200 C 219.561 161.200,220.000 161.380,220.000 161.600 C 220.000 161.820,220.540 162.000,221.200 162.000 C 221.860 162.000,222.400 162.180,222.400 162.400 C 222.400 162.620,222.929 162.800,223.576 162.800 C 224.223 162.800,224.864 162.980,225.000 163.200 C 225.136 163.420,226.047 163.600,227.024 163.600 C 228.001 163.600,228.800 163.780,228.800 164.000 C 228.800 164.255,232.000 164.400,237.600 164.400 C 243.200 164.400,246.400 164.255,246.400 164.000 C 246.400 163.780,247.199 163.600,248.176 163.600 C 249.153 163.600,250.064 163.420,250.200 163.200 C 250.336 162.980,250.977 162.800,251.624 162.800 C 252.271 162.800,252.800 162.620,252.800 162.400 C 252.800 162.180,253.340 162.000,254.000 162.000 C 254.660 162.000,255.200 161.820,255.200 161.600 C 255.200 161.380,255.549 161.200,255.976 161.200 C 256.403 161.200,256.864 161.020,257.000 160.800 C 257.136 160.580,257.597 160.400,258.024 160.400 C 258.451 160.400,258.800 160.220,258.800 160.000 C 258.800 159.780,259.083 159.600,259.429 159.600 C 259.774 159.600,260.327 159.330,260.657 159.000 C 260.987 158.670,261.604 158.400,262.029 158.400 C 262.453 158.400,262.800 158.232,262.800 158.027 C 262.800 157.822,263.115 157.550,263.500 157.423 C 263.885 157.296,264.809 156.654,265.554 155.996 C 266.299 155.338,267.053 154.800,267.229 154.800 C 267.793 154.800,274.036 148.292,274.689 147.023 C 275.035 146.350,275.652 145.509,276.059 145.153 C 276.467 144.797,276.800 144.252,276.800 143.941 C 276.800 143.631,277.160 143.117,277.600 142.800 C 278.040 142.483,278.400 141.993,278.400 141.712 C 278.400 141.430,278.580 141.200,278.800 141.200 C 279.020 141.200,279.200 140.840,279.200 140.400 C 279.200 139.960,279.380 139.600,279.600 139.600 C 279.820 139.600,280.000 139.240,280.000 138.800 C 280.000 138.360,280.180 138.000,280.400 138.000 C 280.620 138.000,280.800 137.640,280.800 137.200 C 280.800 136.760,280.980 136.400,281.200 136.400 C 281.420 136.400,281.600 136.040,281.600 135.600 C 281.600 135.160,281.780 134.800,282.000 134.800 C 282.220 134.800,282.400 134.260,282.400 133.600 C 282.400 132.940,282.580 132.400,282.800 132.400 C 283.020 132.400,283.200 131.860,283.200 131.200 C 283.200 130.540,283.380 130.000,283.600 130.000 C 283.820 130.000,284.000 129.471,284.000 128.824 C 284.000 128.177,284.180 127.536,284.400 127.400 C 284.620 127.264,284.800 126.364,284.800 125.400 C 284.800 124.436,284.980 123.536,285.200 123.400 C 285.444 123.249,285.600 120.129,285.600 115.376 C 285.600 110.459,285.453 107.600,285.200 107.600 C 284.980 107.600,284.800 106.711,284.800 105.624 C 284.800 104.537,284.620 103.536,284.400 103.400 C 284.180 103.264,284.000 102.533,284.000 101.776 C 284.000 101.019,283.820 100.400,283.600 100.400 C 283.380 100.400,283.200 99.860,283.200 99.200 C 283.200 98.540,283.020 98.000,282.800 98.000 C 282.580 98.000,282.400 97.550,282.400 97.000 C 282.400 96.450,282.220 96.000,282.000 96.000 C 281.780 96.000,281.600 95.766,281.600 95.480 C 281.600 94.744,280.659 92.807,280.300 92.803 C 280.135 92.801,280.000 92.440,280.000 92.000 C 280.000 91.560,279.820 91.200,279.600 91.200 C 279.380 91.200,279.200 90.964,279.200 90.675 C 279.200 90.387,278.840 89.764,278.400 89.292 C 277.960 88.820,277.600 88.273,277.600 88.076 C 277.600 87.879,277.077 87.171,276.438 86.502 C 275.798 85.833,275.213 85.002,275.138 84.654 C 274.948 83.783,269.495 78.288,268.120 77.581 C 267.504 77.264,266.730 76.733,266.400 76.400 C 266.070 76.067,265.305 75.540,264.700 75.230 C 264.095 74.919,263.600 74.515,263.600 74.332 C 263.600 74.150,263.322 74.000,262.983 74.000 C 262.644 74.000,261.980 73.640,261.508 73.200 C 261.036 72.760,260.413 72.400,260.125 72.400 C 259.836 72.400,259.600 72.220,259.600 72.000 C 259.600 71.780,259.150 71.600,258.600 71.600 C 258.050 71.600,257.600 71.420,257.600 71.200 C 257.600 70.980,257.240 70.800,256.800 70.800 C 256.360 70.800,256.000 70.620,256.000 70.400 C 256.000 70.180,255.460 70.000,254.800 70.000 C 254.140 70.000,253.600 69.820,253.600 69.600 C 253.600 69.380,253.071 69.200,252.424 69.200 C 251.777 69.200,251.136 69.020,251.000 68.800 C 250.864 68.580,249.953 68.400,248.976 68.400 C 247.999 68.400,247.200 68.220,247.200 68.000 C 247.200 67.758,245.467 67.600,242.800 67.600 C 240.133 67.600,238.400 67.442,238.400 67.200 C 238.400 66.980,237.871 66.800,237.224 66.800 C 236.577 66.800,235.936 66.980,235.800 67.200 M190.400 86.800 C 190.400 87.043,188.600 87.200,185.800 87.200 C 183.000 87.200,181.200 87.357,181.200 87.600 C 181.200 87.829,180.000 88.000,178.400 88.000 C 176.800 88.000,175.600 88.171,175.600 88.400 C 175.600 88.622,174.533 88.800,173.200 88.800 C 171.867 88.800,170.800 88.978,170.800 89.200 C 170.800 89.420,169.900 89.600,168.800 89.600 C 167.700 89.600,166.800 89.780,166.800 90.000 C 166.800 90.220,166.080 90.400,165.200 90.400 C 164.320 90.400,163.600 90.580,163.600 90.800 C 163.600 91.020,162.880 91.200,162.000 91.200 C 161.120 91.200,160.400 91.380,160.400 91.600 C 160.400 91.820,159.770 92.000,159.000 92.000 C 158.230 92.000,157.600 92.180,157.600 92.400 C 157.600 92.620,157.060 92.800,156.400 92.800 C 155.740 92.800,155.200 92.959,155.200 93.154 C 155.200 93.349,154.213 93.631,153.006 93.782 C 151.800 93.933,150.709 94.223,150.583 94.428 C 150.456 94.633,150.085 94.800,149.757 94.800 C 149.429 94.800,148.416 95.160,147.506 95.600 C 146.595 96.040,145.524 96.400,145.125 96.400 C 144.726 96.400,144.400 96.580,144.400 96.800 C 144.400 97.020,144.040 97.200,143.600 97.200 C 143.160 97.200,142.800 97.380,142.800 97.600 C 142.800 97.820,142.440 98.000,142.000 98.000 C 141.560 98.000,141.200 98.180,141.200 98.400 C 141.200 98.620,140.840 98.800,140.400 98.800 C 139.960 98.800,139.600 98.980,139.600 99.200 C 139.600 99.420,139.240 99.600,138.800 99.600 C 138.360 99.600,138.000 99.780,138.000 100.000 C 138.000 100.220,137.640 100.400,137.200 100.400 C 136.760 100.400,136.400 100.580,136.400 100.800 C 136.400 101.020,136.040 101.200,135.600 101.200 C 135.160 101.200,134.800 101.380,134.800 101.600 C 134.800 101.820,134.440 102.000,134.000 102.000 C 133.560 102.000,133.200 102.180,133.200 102.400 C 133.200 102.620,132.964 102.800,132.675 102.800 C 132.387 102.800,131.764 103.160,131.292 103.600 C 130.820 104.040,130.196 104.400,129.905 104.400 C 129.614 104.400,129.117 104.760,128.800 105.200 C 128.483 105.640,127.993 106.000,127.712 106.000 C 127.430 106.000,127.200 106.150,127.200 106.332 C 127.200 106.515,126.705 106.919,126.100 107.230 C 125.495 107.540,124.709 108.111,124.353 108.497 C 123.997 108.884,123.495 109.200,123.236 109.200 C 122.978 109.200,122.549 109.383,122.283 109.607 C 120.244 111.327,119.682 111.770,118.809 112.346 C 116.860 113.632,107.600 122.628,107.600 123.236 C 107.600 123.446,106.655 124.583,105.500 125.762 C 102.533 128.792,100.400 131.321,100.400 131.807 C 100.400 132.036,100.040 132.483,99.600 132.800 C 99.160 133.117,98.800 133.573,98.800 133.813 C 98.800 134.053,98.485 134.607,98.100 135.045 C 97.715 135.483,97.175 136.237,96.900 136.720 C 96.625 137.204,96.175 137.996,95.900 138.480 C 95.625 138.963,95.094 139.708,94.720 140.134 C 94.346 140.560,93.932 141.399,93.800 142.000 C 93.668 142.601,93.244 143.431,92.858 143.846 C 92.471 144.261,91.897 145.185,91.580 145.900 C 91.264 146.615,90.869 147.200,90.702 147.200 C 90.536 147.200,90.400 147.560,90.400 148.000 C 90.400 148.440,90.220 148.800,90.000 148.800 C 89.780 148.800,89.600 149.160,89.600 149.600 C 89.600 150.040,89.420 150.400,89.200 150.400 C 88.980 150.400,88.800 150.760,88.800 151.200 C 88.800 151.640,88.620 152.000,88.400 152.000 C 88.180 152.000,88.000 152.360,88.000 152.800 C 88.000 153.240,87.820 153.600,87.600 153.600 C 87.380 153.600,87.200 153.949,87.200 154.376 C 87.200 154.803,87.020 155.264,86.800 155.400 C 86.580 155.536,86.400 156.087,86.400 156.624 C 86.400 157.161,86.220 157.600,86.000 157.600 C 85.780 157.600,85.600 157.960,85.600 158.400 C 85.600 158.840,85.420 159.200,85.200 159.200 C 84.980 159.200,84.800 159.555,84.800 159.988 C 84.800 160.421,84.440 161.417,84.000 162.200 C 83.560 162.983,83.200 163.968,83.200 164.389 C 83.200 164.809,83.020 165.264,82.800 165.400 C 82.580 165.536,82.400 166.087,82.400 166.624 C 82.400 167.161,82.220 167.600,82.000 167.600 C 81.780 167.600,81.600 168.052,81.600 168.605 C 81.600 169.158,81.442 169.923,81.249 170.305 C 80.660 171.472,80.000 173.808,80.000 174.728 C 80.000 175.208,79.820 175.600,79.600 175.600 C 79.380 175.600,79.200 176.219,79.200 176.976 C 79.200 177.733,79.020 178.464,78.800 178.600 C 78.580 178.736,78.400 179.456,78.400 180.200 C 78.400 180.944,78.237 181.654,78.037 181.777 C 77.838 181.900,77.546 183.711,77.390 185.801 C 77.233 187.890,76.946 189.600,76.752 189.600 C 76.559 189.600,76.400 190.500,76.400 191.600 C 76.400 193.278,76.281 193.600,75.661 193.600 C 75.255 193.600,74.507 193.960,74.000 194.400 C 73.493 194.840,72.970 195.200,72.839 195.200 C 72.389 195.200,69.366 198.198,68.401 199.600 C 67.871 200.370,67.114 201.291,66.719 201.647 C 66.324 202.003,66.000 202.588,66.000 202.947 C 66.000 203.306,65.855 203.600,65.677 203.600 C 65.261 203.600,62.800 208.531,62.800 209.366 C 62.800 209.715,62.620 210.000,62.400 210.000 C 62.180 210.000,62.000 210.439,62.000 210.976 C 62.000 211.513,61.820 212.064,61.600 212.200 C 61.380 212.336,61.200 212.851,61.200 213.344 C 61.200 213.837,61.028 214.412,60.817 214.623 C 60.607 214.833,60.311 216.489,60.160 218.303 C 60.009 220.116,59.731 221.600,59.542 221.600 C 59.354 221.600,59.200 223.299,59.200 225.376 C 59.200 227.463,59.021 229.263,58.800 229.400 C 58.269 229.728,58.269 239.472,58.800 239.800 C 59.020 239.936,59.200 241.117,59.200 242.424 C 59.200 243.731,59.359 244.800,59.554 244.800 C 59.749 244.800,60.031 245.787,60.182 246.994 C 60.333 248.200,60.623 249.291,60.828 249.417 C 61.033 249.544,61.200 249.997,61.200 250.424 C 61.200 250.851,61.336 251.200,61.502 251.200 C 61.669 251.200,62.059 251.785,62.369 252.500 C 63.906 256.041,74.141 267.600,75.740 267.600 C 76.006 267.600,76.483 267.960,76.800 268.400 C 77.117 268.840,77.607 269.200,77.888 269.200 C 78.170 269.200,78.400 269.350,78.400 269.532 C 78.400 269.715,78.895 270.120,79.500 270.432 C 80.105 270.744,80.690 271.115,80.800 271.258 C 81.215 271.795,88.195 275.200,88.882 275.200 C 89.277 275.200,89.600 275.380,89.600 275.600 C 89.600 275.820,89.960 276.000,90.400 276.000 C 90.840 276.000,91.200 276.180,91.200 276.400 C 91.200 276.620,91.711 276.800,92.336 276.800 C 93.266 276.800,93.610 277.089,94.236 278.395 C 94.656 279.273,95.135 279.993,95.300 279.995 C 95.465 279.998,95.600 280.236,95.600 280.525 C 95.600 280.813,95.915 281.398,96.300 281.825 C 96.685 282.251,97.255 283.095,97.568 283.700 C 97.880 284.305,98.285 284.800,98.468 284.800 C 98.650 284.800,98.800 285.036,98.800 285.325 C 98.800 285.613,99.160 286.236,99.600 286.708 C 100.040 287.180,100.400 287.727,100.400 287.924 C 100.400 288.121,100.940 288.846,101.600 289.537 C 102.260 290.228,102.800 290.898,102.800 291.028 C 102.800 291.157,103.520 291.954,104.400 292.800 C 105.280 293.646,106.000 294.535,106.000 294.777 C 106.000 295.788,122.268 312.000,123.282 312.000 C 123.472 312.000,124.224 312.585,124.955 313.300 C 126.671 314.981,128.916 316.783,129.304 316.793 C 129.471 316.797,130.172 317.340,130.863 318.000 C 131.554 318.660,132.362 319.200,132.659 319.200 C 132.957 319.200,133.200 319.350,133.200 319.532 C 133.200 319.715,133.695 320.120,134.300 320.432 C 134.905 320.744,135.490 321.089,135.600 321.199 C 135.994 321.595,138.213 322.854,138.900 323.071 C 139.285 323.193,139.600 323.452,139.600 323.647 C 139.600 323.841,139.883 324.000,140.229 324.000 C 140.574 324.000,141.127 324.270,141.457 324.600 C 141.787 324.930,142.404 325.200,142.829 325.200 C 143.253 325.200,143.600 325.346,143.600 325.525 C 143.600 325.704,144.230 326.098,145.000 326.400 C 145.770 326.702,146.400 327.096,146.400 327.275 C 146.400 327.454,146.760 327.600,147.200 327.600 C 147.640 327.600,148.000 327.780,148.000 328.000 C 148.000 328.220,148.272 328.400,148.605 328.400 C 148.938 328.400,149.568 328.580,150.005 328.800 C 150.442 329.020,151.158 329.380,151.595 329.600 C 152.032 329.820,152.662 330.000,152.995 330.000 C 153.328 330.000,153.600 330.180,153.600 330.400 C 153.600 330.620,153.960 330.800,154.400 330.800 C 154.840 330.800,155.200 330.980,155.200 331.200 C 155.200 331.420,155.740 331.600,156.400 331.600 C 157.060 331.600,157.600 331.780,157.600 332.000 C 157.600 332.220,157.962 332.400,158.405 332.400 C 158.848 332.400,159.613 332.608,160.105 332.862 C 162.026 333.856,162.416 334.000,163.171 334.000 C 163.601 334.000,164.064 334.180,164.200 334.400 C 164.336 334.620,164.977 334.800,165.624 334.800 C 166.271 334.800,166.800 334.960,166.800 335.156 C 166.800 335.352,167.430 335.622,168.200 335.756 C 168.970 335.890,170.232 336.110,171.004 336.244 C 171.776 336.379,172.506 336.649,172.627 336.844 C 172.748 337.040,173.647 337.200,174.624 337.200 C 175.601 337.200,176.400 337.380,176.400 337.600 C 176.400 337.820,177.264 338.000,178.320 338.000 C 179.376 338.000,180.411 338.165,180.620 338.366 C 181.875 339.576,201.372 340.410,210.400 339.641 C 219.535 338.863,220.597 338.735,220.980 338.366 C 221.189 338.165,222.224 338.000,223.280 338.000 C 224.336 338.000,225.200 337.820,225.200 337.600 C 225.200 337.380,225.999 337.200,226.976 337.200 C 227.953 337.200,228.864 337.020,229.000 336.800 C 229.136 336.580,229.856 336.400,230.600 336.400 C 231.344 336.400,232.064 336.220,232.200 336.000 C 232.336 335.780,232.977 335.600,233.624 335.600 C 234.271 335.600,234.800 335.420,234.800 335.200 C 234.800 334.980,235.430 334.800,236.200 334.800 C 236.970 334.800,237.600 334.620,237.600 334.400 C 237.600 334.180,238.140 334.000,238.800 334.000 C 239.460 334.000,240.000 333.820,240.000 333.600 C 240.000 333.380,240.439 333.200,240.976 333.200 C 241.513 333.200,242.064 333.020,242.200 332.800 C 242.336 332.580,242.797 332.400,243.224 332.400 C 243.651 332.400,244.000 332.220,244.000 332.000 C 244.000 331.780,244.540 331.600,245.200 331.600 C 245.860 331.600,246.400 331.420,246.400 331.200 C 246.400 330.980,246.760 330.800,247.200 330.800 C 247.640 330.800,248.000 330.620,248.000 330.400 C 248.000 330.180,248.439 330.000,248.976 330.000 C 249.513 330.000,250.064 329.820,250.200 329.600 C 250.336 329.380,250.797 329.200,251.224 329.200 C 251.651 329.200,252.000 329.020,252.000 328.800 C 252.000 328.580,252.360 328.400,252.800 328.400 C 253.240 328.400,253.600 328.220,253.600 328.000 C 253.600 327.780,253.960 327.600,254.400 327.600 C 254.840 327.600,255.200 327.420,255.200 327.200 C 255.200 326.980,255.560 326.800,256.000 326.800 C 256.440 326.800,256.800 326.620,256.800 326.400 C 256.800 326.180,257.160 326.000,257.600 326.000 C 258.040 326.000,258.401 325.865,258.401 325.700 C 258.402 325.535,259.212 325.067,260.201 324.660 C 261.191 324.254,262.000 323.759,262.000 323.560 C 262.000 323.362,262.360 323.200,262.800 323.200 C 263.240 323.200,263.600 323.020,263.600 322.800 C 263.600 322.580,263.836 322.400,264.125 322.400 C 264.413 322.400,265.036 322.040,265.508 321.600 C 265.980 321.160,266.644 320.800,266.983 320.800 C 267.322 320.800,267.600 320.650,267.600 320.468 C 267.600 320.285,268.095 319.880,268.700 319.568 C 269.305 319.255,270.149 318.685,270.575 318.300 C 271.002 317.915,271.547 317.600,271.787 317.600 C 272.027 317.600,272.483 317.240,272.800 316.800 C 273.117 316.360,273.535 316.000,273.728 316.000 C 273.921 316.000,274.583 315.460,275.200 314.800 C 275.817 314.140,276.533 313.600,276.792 313.600 C 277.051 313.600,277.954 312.880,278.800 312.000 C 279.646 311.120,280.531 310.400,280.769 310.400 C 281.006 310.400,281.200 310.220,281.200 310.000 C 281.200 309.780,281.385 309.600,281.611 309.600 C 282.147 309.600,284.181 307.771,288.168 303.702 C 294.185 297.563,295.600 296.017,295.600 295.582 C 295.600 295.343,296.500 294.271,297.600 293.200 C 298.700 292.129,299.600 291.100,299.600 290.914 C 299.600 290.729,299.960 290.317,300.400 290.000 C 300.840 289.683,301.200 289.193,301.200 288.912 C 301.200 288.630,301.380 288.400,301.600 288.400 C 301.820 288.400,302.000 288.130,302.000 287.800 C 302.000 287.470,302.150 287.200,302.332 287.200 C 302.515 287.200,302.919 286.705,303.230 286.100 C 303.540 285.495,304.111 284.709,304.497 284.353 C 304.884 283.997,305.200 283.489,305.200 283.225 C 305.200 282.201,306.374 281.600,308.371 281.600 C 309.487 281.600,310.400 281.420,310.400 281.200 C 310.400 280.980,311.300 280.800,312.400 280.800 C 313.500 280.800,314.400 280.620,314.400 280.400 C 314.400 280.180,314.940 280.000,315.600 280.000 C 316.260 280.000,316.800 279.820,316.800 279.600 C 316.800 279.380,317.160 279.200,317.600 279.200 C 318.040 279.200,318.400 279.020,318.400 278.800 C 318.400 278.580,318.634 278.400,318.920 278.400 C 319.656 278.400,321.593 277.459,321.597 277.100 C 321.599 276.935,321.960 276.800,322.400 276.800 C 322.840 276.800,323.200 276.620,323.200 276.400 C 323.200 276.180,323.388 276.000,323.617 276.000 C 323.846 276.000,324.251 275.817,324.517 275.593 C 326.267 274.117,326.952 273.599,327.161 273.594 C 327.622 273.581,329.843 271.386,330.798 270.000 C 331.328 269.230,332.086 268.309,332.481 267.953 C 332.876 267.597,333.200 267.027,333.200 266.686 C 333.200 266.346,333.335 266.007,333.500 265.933 C 333.975 265.722,335.600 262.559,335.600 261.846 C 335.600 261.490,335.780 261.200,336.000 261.200 C 336.220 261.200,336.400 260.840,336.400 260.400 C 336.400 259.960,336.580 259.600,336.800 259.600 C 337.020 259.600,337.200 259.071,337.200 258.424 C 337.200 257.777,337.380 257.136,337.600 257.000 C 337.820 256.864,338.000 256.234,338.000 255.600 C 338.000 254.966,338.180 254.336,338.400 254.200 C 338.620 254.064,338.800 253.189,338.800 252.256 C 338.800 251.323,338.965 250.389,339.166 250.180 C 340.320 248.983,340.322 224.800,339.168 224.800 C 338.966 224.800,338.800 224.080,338.800 223.200 C 338.800 222.320,338.620 221.600,338.400 221.600 C 338.180 221.600,338.000 221.071,338.000 220.424 C 338.000 219.777,337.820 219.136,337.600 219.000 C 337.380 218.864,337.200 218.313,337.200 217.776 C 337.200 217.239,337.020 216.800,336.800 216.800 C 336.580 216.800,336.400 216.451,336.400 216.024 C 336.400 215.597,336.220 215.136,336.000 215.000 C 335.780 214.864,335.600 214.403,335.600 213.976 C 335.600 213.549,335.454 213.200,335.275 213.200 C 335.096 213.200,334.702 212.570,334.400 211.800 C 334.098 211.030,333.704 210.400,333.525 210.400 C 333.346 210.400,333.200 210.170,333.200 209.888 C 333.200 209.607,332.840 209.117,332.400 208.800 C 331.960 208.483,331.600 207.975,331.600 207.672 C 331.600 207.369,331.098 206.644,330.485 206.060 C 329.871 205.477,328.935 204.370,328.404 203.600 C 327.456 202.226,327.110 201.878,324.509 199.688 L 323.217 198.600 323.209 192.324 C 323.203 188.581,323.039 185.947,322.800 185.800 C 322.580 185.664,322.400 184.584,322.400 183.400 C 322.400 182.216,322.220 181.136,322.000 181.000 C 321.780 180.864,321.600 180.054,321.600 179.200 C 321.600 178.346,321.420 177.536,321.200 177.400 C 320.980 177.264,320.800 176.544,320.800 175.800 C 320.800 175.056,320.620 174.336,320.400 174.200 C 320.180 174.064,320.000 173.423,320.000 172.776 C 320.000 172.129,319.820 171.600,319.600 171.600 C 319.380 171.600,319.200 171.060,319.200 170.400 C 319.200 169.740,319.020 169.200,318.800 169.200 C 318.580 169.200,318.400 168.660,318.400 168.000 C 318.400 167.340,318.220 166.800,318.000 166.800 C 317.780 166.800,317.600 166.451,317.600 166.024 C 317.600 165.597,317.420 165.136,317.200 165.000 C 316.980 164.864,316.800 164.313,316.800 163.776 C 316.800 163.239,316.620 162.800,316.400 162.800 C 316.180 162.800,316.000 162.440,316.000 162.000 C 316.000 161.560,315.820 161.200,315.600 161.200 C 315.380 161.200,315.200 160.750,315.200 160.200 C 315.200 159.650,315.020 159.200,314.800 159.200 C 314.580 159.200,314.400 158.840,314.400 158.400 C 314.400 157.960,314.220 157.600,314.000 157.600 C 313.780 157.600,313.600 157.240,313.600 156.800 C 313.600 156.360,313.420 156.000,313.200 156.000 C 312.980 156.000,312.800 155.640,312.800 155.200 C 312.800 154.760,312.620 154.400,312.400 154.400 C 312.180 154.400,312.000 154.040,312.000 153.600 C 312.000 153.160,311.820 152.800,311.600 152.800 C 311.380 152.800,311.200 152.440,311.200 152.000 C 311.200 151.560,311.020 151.200,310.800 151.200 C 310.580 151.200,310.400 150.930,310.400 150.600 C 310.400 150.270,310.220 150.000,310.000 150.000 C 309.780 150.000,309.600 149.730,309.600 149.400 C 309.600 149.070,309.420 148.800,309.200 148.800 C 308.980 148.800,308.800 148.482,308.800 148.093 C 308.800 147.704,308.350 146.723,307.800 145.914 C 307.250 145.105,306.800 144.253,306.800 144.021 C 306.800 143.790,306.620 143.600,306.400 143.600 C 306.180 143.600,306.000 143.364,306.000 143.075 C 306.000 142.787,305.684 142.202,305.297 141.775 C 304.910 141.349,304.276 140.505,303.888 139.900 C 303.499 139.295,302.955 138.800,302.679 138.800 C 302.403 138.800,301.917 138.440,301.600 138.000 C 301.261 137.530,300.565 137.200,299.912 137.200 C 299.300 137.200,298.800 137.020,298.800 136.800 C 298.800 136.299,294.633 136.271,293.695 136.767 C 293.313 136.968,292.415 137.350,291.700 137.615 C 290.985 137.880,290.400 138.255,290.400 138.449 C 290.400 138.642,290.122 138.800,289.782 138.800 C 287.084 138.800,283.736 149.601,286.000 151.000 C 286.220 151.136,286.400 151.514,286.400 151.840 C 286.400 152.167,286.760 152.820,287.200 153.292 C 287.640 153.764,288.000 154.387,288.000 154.675 C 288.000 154.964,288.180 155.200,288.400 155.200 C 288.620 155.200,288.800 155.470,288.800 155.800 C 288.800 156.130,288.980 156.400,289.200 156.400 C 289.420 156.400,289.600 156.670,289.600 157.000 C 289.600 157.330,289.780 157.600,290.000 157.600 C 290.220 157.600,290.400 157.870,290.400 158.200 C 290.400 158.530,290.580 158.800,290.800 158.800 C 291.020 158.800,291.200 159.120,291.200 159.512 C 291.200 159.903,291.560 160.483,292.000 160.800 C 292.440 161.117,292.800 161.697,292.800 162.088 C 292.800 162.480,292.980 162.800,293.200 162.800 C 293.420 162.800,293.601 163.115,293.601 163.500 C 293.602 163.885,294.232 165.450,295.001 166.977 C 295.771 168.504,296.400 169.989,296.400 170.277 C 296.400 170.565,296.580 170.800,296.800 170.800 C 297.020 170.800,297.200 171.250,297.200 171.800 C 297.200 172.350,297.380 172.800,297.600 172.800 C 297.820 172.800,298.000 173.149,298.000 173.576 C 298.000 174.003,298.180 174.464,298.400 174.600 C 298.620 174.736,298.800 175.287,298.800 175.824 C 298.800 176.361,298.980 176.800,299.200 176.800 C 299.420 176.800,299.600 177.340,299.600 178.000 C 299.600 178.660,299.780 179.200,300.000 179.200 C 300.220 179.200,300.400 179.729,300.400 180.376 C 300.400 181.023,300.580 181.664,300.800 181.800 C 301.020 181.936,301.200 182.656,301.200 183.400 C 301.200 184.144,301.380 184.864,301.600 185.000 C 301.820 185.136,302.000 186.137,302.000 187.224 C 302.000 188.311,302.180 189.200,302.400 189.200 C 302.649 189.200,302.800 191.467,302.800 195.200 C 302.800 198.933,302.649 201.200,302.400 201.200 C 302.180 201.200,302.000 201.560,302.000 202.000 C 302.000 202.440,301.820 202.800,301.600 202.800 C 301.380 202.800,301.200 203.160,301.200 203.600 C 301.200 204.040,301.020 204.400,300.800 204.400 C 300.580 204.400,300.400 204.760,300.400 205.200 C 300.400 205.640,300.220 206.000,300.000 206.000 C 299.389 206.000,299.524 208.381,300.171 209.029 C 300.486 209.343,301.026 209.600,301.371 209.600 C 301.717 209.600,302.000 209.780,302.000 210.000 C 302.000 210.220,302.278 210.400,302.617 210.400 C 302.956 210.400,303.620 210.760,304.092 211.200 C 304.564 211.640,305.187 212.000,305.475 212.000 C 305.764 212.000,306.000 212.180,306.000 212.400 C 306.000 212.620,306.360 212.800,306.800 212.800 C 307.240 212.800,307.600 212.980,307.600 213.200 C 307.600 213.420,307.871 213.600,308.202 213.600 C 309.078 213.600,314.504 219.284,315.568 221.316 C 315.880 221.912,316.285 222.400,316.468 222.400 C 316.650 222.400,316.800 222.760,316.800 223.200 C 316.800 223.640,316.980 224.000,317.200 224.000 C 317.420 224.000,317.600 224.450,317.600 225.000 C 317.600 225.550,317.736 226.000,317.903 226.000 C 318.296 226.000,319.200 228.904,319.200 230.170 C 319.200 230.711,319.380 231.264,319.600 231.400 C 319.837 231.546,320.000 233.996,320.000 237.400 C 320.000 240.804,319.837 243.254,319.600 243.400 C 319.380 243.536,319.200 244.447,319.200 245.424 C 319.200 246.401,319.020 247.200,318.800 247.200 C 318.580 247.200,318.400 247.740,318.400 248.400 C 318.400 249.060,318.220 249.600,318.000 249.600 C 317.780 249.600,317.600 249.834,317.600 250.120 C 317.600 250.856,316.659 252.793,316.300 252.797 C 316.135 252.799,316.000 253.076,316.000 253.413 C 316.000 254.099,313.458 256.800,312.813 256.800 C 312.586 256.800,312.400 256.980,312.400 257.200 C 312.400 257.420,312.040 257.600,311.600 257.600 C 311.160 257.600,310.800 257.780,310.800 258.000 C 310.800 258.220,310.181 258.400,309.424 258.400 C 308.667 258.400,307.936 258.580,307.800 258.800 C 307.664 259.020,306.944 259.200,306.200 259.200 C 305.456 259.200,304.736 259.020,304.600 258.800 C 304.464 258.580,302.923 258.400,301.176 258.400 C 299.325 258.400,298.000 258.233,298.000 258.000 C 298.000 257.780,297.402 257.600,296.671 257.600 C 295.284 257.600,294.942 258.056,293.153 262.300 C 292.851 263.015,292.469 263.600,292.302 263.600 C 292.136 263.600,292.000 263.960,292.000 264.400 C 292.000 264.840,291.820 265.200,291.600 265.200 C 291.380 265.200,291.200 265.478,291.200 265.817 C 291.200 266.156,290.840 266.820,290.400 267.292 C 289.960 267.764,289.600 268.387,289.600 268.675 C 289.600 268.964,289.420 269.200,289.200 269.200 C 288.980 269.200,288.800 269.520,288.800 269.912 C 288.800 270.303,288.440 270.883,288.000 271.200 C 287.560 271.517,287.200 272.057,287.200 272.400 C 287.200 272.743,286.840 273.283,286.400 273.600 C 285.960 273.917,285.600 274.380,285.600 274.629 C 285.600 274.878,285.060 275.646,284.400 276.337 C 283.740 277.028,283.200 277.708,283.200 277.849 C 283.200 277.991,282.881 278.397,282.492 278.753 C 282.103 279.109,281.281 280.030,280.667 280.800 C 280.052 281.570,279.066 282.800,278.475 283.533 C 276.648 285.799,269.651 292.800,269.214 292.800 C 268.986 292.800,268.800 292.980,268.800 293.200 C 268.800 293.420,268.575 293.605,268.300 293.611 C 268.025 293.617,267.023 294.333,266.073 295.204 C 265.124 296.074,263.819 297.098,263.173 297.479 C 262.528 297.861,262.000 298.314,262.000 298.486 C 262.000 298.659,261.796 298.800,261.547 298.800 C 261.298 298.800,260.803 299.116,260.447 299.503 C 260.091 299.889,259.305 300.460,258.700 300.770 C 258.095 301.081,257.600 301.485,257.600 301.668 C 257.600 301.850,257.280 302.000,256.888 302.000 C 256.497 302.000,255.917 302.360,255.600 302.800 C 255.283 303.240,254.703 303.600,254.312 303.600 C 253.920 303.600,253.600 303.780,253.600 304.000 C 253.600 304.220,253.364 304.400,253.075 304.400 C 252.787 304.400,252.164 304.760,251.692 305.200 C 251.220 305.640,250.556 306.000,250.217 306.000 C 249.878 306.000,249.600 306.180,249.600 306.400 C 249.600 306.620,249.240 306.800,248.800 306.800 C 248.360 306.800,248.000 306.980,248.000 307.200 C 248.000 307.420,247.640 307.600,247.200 307.600 C 246.760 307.600,246.400 307.780,246.400 308.000 C 246.400 308.220,246.040 308.400,245.600 308.400 C 245.160 308.400,244.800 308.536,244.800 308.702 C 244.800 309.119,242.906 309.895,241.100 310.220 C 240.275 310.368,239.600 310.616,239.600 310.772 C 239.600 310.928,238.700 311.300,237.600 311.600 C 236.500 311.900,235.600 312.292,235.600 312.472 C 235.600 312.653,235.060 312.800,234.400 312.800 C 233.740 312.800,233.200 312.980,233.200 313.200 C 233.200 313.420,232.671 313.600,232.024 313.600 C 231.377 313.600,230.736 313.780,230.600 314.000 C 230.464 314.220,229.823 314.400,229.176 314.400 C 228.529 314.400,228.000 314.580,228.000 314.800 C 228.000 315.020,227.280 315.200,226.400 315.200 C 225.520 315.200,224.800 315.380,224.800 315.600 C 224.800 315.820,224.091 316.000,223.224 316.000 C 222.357 316.000,221.536 316.180,221.400 316.400 C 221.264 316.620,220.173 316.800,218.976 316.800 C 217.779 316.800,216.800 316.980,216.800 317.200 C 216.800 317.431,215.533 317.600,213.800 317.600 C 212.067 317.600,210.800 317.769,210.800 318.000 C 210.800 318.255,207.467 318.400,201.600 318.400 C 195.733 318.400,192.400 318.255,192.400 318.000 C 192.400 317.769,191.133 317.600,189.400 317.600 C 187.750 317.600,186.400 317.437,186.400 317.237 C 186.400 317.037,185.455 316.773,184.300 316.650 C 179.863 316.177,178.400 315.907,178.400 315.560 C 178.400 315.362,177.680 315.200,176.800 315.200 C 175.920 315.200,175.200 315.020,175.200 314.800 C 175.200 314.580,174.671 314.400,174.024 314.400 C 173.377 314.400,172.736 314.220,172.600 314.000 C 172.464 313.780,171.924 313.600,171.400 313.600 C 170.876 313.600,170.358 313.456,170.249 313.279 C 170.140 313.103,169.128 312.707,168.000 312.400 C 166.872 312.093,165.860 311.697,165.751 311.521 C 165.642 311.344,165.113 311.200,164.576 311.200 C 164.039 311.200,163.600 311.036,163.600 310.835 C 163.600 310.634,162.880 310.349,162.000 310.200 C 161.120 310.051,160.400 309.766,160.400 309.565 C 160.400 309.364,160.040 309.200,159.600 309.200 C 159.160 309.200,158.800 309.020,158.800 308.800 C 158.800 308.580,158.440 308.400,158.000 308.400 C 157.560 308.400,157.200 308.220,157.200 308.000 C 157.200 307.780,156.840 307.600,156.400 307.600 C 155.960 307.600,155.600 307.454,155.600 307.275 C 155.600 307.096,154.970 306.702,154.200 306.400 C 153.430 306.098,152.800 305.704,152.800 305.525 C 152.800 305.346,152.440 305.200,152.000 305.200 C 151.560 305.200,151.200 305.020,151.200 304.800 C 151.200 304.580,150.880 304.400,150.488 304.400 C 150.097 304.400,149.517 304.040,149.200 303.600 C 148.883 303.160,148.303 302.800,147.912 302.800 C 147.520 302.800,147.200 302.650,147.200 302.468 C 147.200 302.285,146.705 301.881,146.100 301.570 C 145.495 301.260,144.709 300.689,144.353 300.303 C 143.997 299.916,143.494 299.600,143.235 299.600 C 142.976 299.600,142.349 299.195,141.843 298.700 C 140.757 297.638,138.453 295.799,136.455 294.400 C 134.939 293.338,125.735 284.182,123.925 281.935 C 123.334 281.201,122.344 279.970,121.725 279.200 C 121.106 278.430,120.465 277.740,120.300 277.667 C 120.135 277.593,120.000 277.360,120.000 277.148 C 120.000 276.937,119.550 276.314,119.000 275.764 C 118.450 275.214,118.000 274.600,118.000 274.400 C 118.000 274.200,117.550 273.586,117.000 273.036 C 116.450 272.486,116.000 271.798,116.000 271.506 C 116.000 271.215,115.640 270.717,115.200 270.400 C 114.760 270.083,114.400 269.503,114.400 269.112 C 114.400 268.720,114.220 268.400,114.000 268.400 C 113.780 268.400,113.600 268.080,113.600 267.688 C 113.600 267.297,113.240 266.717,112.800 266.400 C 112.360 266.083,112.000 265.503,112.000 265.112 C 112.000 264.720,111.820 264.400,111.600 264.400 C 111.380 264.400,111.200 264.040,111.200 263.600 C 111.200 263.160,111.054 262.800,110.875 262.800 C 110.696 262.800,110.302 262.170,110.000 261.400 C 109.490 260.101,109.326 260.000,107.725 260.000 C 106.776 260.000,106.000 259.820,106.000 259.600 C 106.000 259.380,105.460 259.200,104.800 259.200 C 104.140 259.200,103.600 259.020,103.600 258.800 C 103.600 258.580,103.240 258.400,102.800 258.400 C 102.360 258.400,102.000 258.220,102.000 258.000 C 102.000 257.780,101.550 257.600,101.000 257.600 C 100.450 257.600,100.000 257.420,100.000 257.200 C 100.000 256.980,99.550 256.800,99.000 256.800 C 98.450 256.800,98.000 256.620,98.000 256.400 C 98.000 256.180,97.764 256.000,97.475 256.000 C 97.187 256.000,96.564 255.640,96.092 255.200 C 95.620 254.760,94.956 254.400,94.617 254.400 C 94.278 254.400,94.000 254.220,94.000 254.000 C 94.000 253.780,93.733 253.600,93.407 253.600 C 92.733 253.600,91.638 252.679,87.158 248.345 C 85.421 246.665,84.000 245.130,84.000 244.934 C 84.000 244.737,83.640 244.317,83.200 244.000 C 82.760 243.683,82.400 243.103,82.400 242.712 C 82.400 242.320,82.220 242.000,82.000 242.000 C 81.780 242.000,81.600 241.460,81.600 240.800 C 81.600 240.140,81.420 239.600,81.200 239.600 C 80.951 239.600,80.800 237.333,80.800 233.600 C 80.800 229.867,80.951 227.600,81.200 227.600 C 81.420 227.600,81.600 226.621,81.600 225.424 C 81.600 224.227,81.780 223.136,82.000 223.000 C 82.220 222.864,82.400 222.234,82.400 221.600 C 82.400 220.966,82.580 220.336,82.800 220.200 C 83.020 220.064,83.200 219.603,83.200 219.176 C 83.200 218.749,83.380 218.400,83.600 218.400 C 83.820 218.400,84.000 218.166,84.000 217.880 C 84.000 217.144,84.941 215.207,85.300 215.203 C 85.465 215.201,85.600 214.925,85.600 214.589 C 85.600 213.796,88.996 210.400,89.789 210.400 C 90.125 210.400,90.400 210.220,90.400 210.000 C 90.400 209.780,90.850 209.600,91.400 209.600 C 91.950 209.600,92.400 209.436,92.400 209.235 C 92.400 209.034,93.120 208.749,94.000 208.600 C 94.880 208.451,95.600 208.166,95.600 207.965 C 95.600 207.764,95.960 207.600,96.400 207.600 C 97.151 207.600,97.200 207.333,97.200 203.280 C 97.200 200.904,97.366 198.789,97.570 198.580 C 97.773 198.371,98.034 196.850,98.149 195.200 C 98.458 190.780,98.831 188.249,99.239 187.820 C 99.437 187.611,99.600 186.666,99.600 185.720 C 99.600 184.774,99.780 184.000,100.000 184.000 C 100.220 184.000,100.400 183.280,100.400 182.400 C 100.400 181.520,100.580 180.800,100.800 180.800 C 101.020 180.800,101.200 180.271,101.200 179.624 C 101.200 178.977,101.380 178.336,101.600 178.200 C 101.820 178.064,102.000 177.333,102.000 176.576 C 102.000 175.819,102.180 175.200,102.400 175.200 C 102.620 175.200,102.800 174.761,102.800 174.224 C 102.800 173.687,102.980 173.136,103.200 173.000 C 103.420 172.864,103.600 172.313,103.600 171.776 C 103.600 171.239,103.780 170.800,104.000 170.800 C 104.220 170.800,104.400 170.451,104.400 170.024 C 104.400 169.597,104.580 169.136,104.800 169.000 C 105.020 168.864,105.200 168.313,105.200 167.776 C 105.200 167.239,105.380 166.800,105.600 166.800 C 105.820 166.800,106.000 166.521,106.000 166.181 C 106.000 165.840,106.360 164.816,106.800 163.906 C 107.240 162.995,107.600 162.014,107.600 161.725 C 107.600 161.436,107.760 161.200,107.955 161.200 C 108.151 161.200,108.429 160.570,108.574 159.800 C 108.718 159.030,109.008 158.400,109.218 158.400 C 109.428 158.400,109.600 158.040,109.600 157.600 C 109.600 157.160,109.780 156.800,110.000 156.800 C 110.220 156.800,110.400 156.530,110.400 156.200 C 110.400 155.870,110.580 155.600,110.800 155.600 C 111.020 155.600,111.200 155.330,111.200 155.000 C 111.200 154.670,111.380 154.400,111.600 154.400 C 111.820 154.400,112.000 154.040,112.000 153.600 C 112.000 153.160,112.180 152.800,112.400 152.800 C 112.620 152.800,112.800 152.480,112.800 152.088 C 112.800 151.697,113.160 151.117,113.600 150.800 C 114.040 150.483,114.400 149.943,114.400 149.600 C 114.400 149.257,114.760 148.717,115.200 148.400 C 115.640 148.083,116.000 147.591,116.000 147.308 C 116.000 147.025,116.540 146.228,117.200 145.537 C 117.860 144.846,118.400 144.122,118.400 143.927 C 118.400 143.733,118.985 142.974,119.700 142.242 C 120.415 141.510,121.567 140.211,122.260 139.355 C 124.210 136.949,131.086 130.000,131.518 130.000 C 131.730 130.000,132.645 129.280,133.552 128.400 C 134.459 127.520,135.336 126.798,135.500 126.795 C 135.665 126.792,136.250 126.431,136.800 125.992 C 138.395 124.721,140.802 123.200,141.218 123.200 C 141.428 123.200,141.600 123.042,141.600 122.849 C 141.600 122.655,142.140 122.273,142.800 122.000 C 143.460 121.727,144.000 121.345,144.000 121.151 C 144.000 120.958,144.360 120.800,144.800 120.800 C 145.240 120.800,145.600 120.620,145.600 120.400 C 145.600 120.180,145.945 120.000,146.367 120.000 C 146.788 120.000,147.193 119.865,147.267 119.700 C 147.459 119.268,150.772 117.600,151.438 117.600 C 151.747 117.600,152.000 117.420,152.000 117.200 C 152.000 116.980,152.360 116.800,152.800 116.800 C 153.240 116.800,153.600 116.620,153.600 116.400 C 153.600 116.180,153.960 116.000,154.400 116.000 C 154.840 116.000,155.200 115.820,155.200 115.600 C 155.200 115.380,155.639 115.200,156.176 115.200 C 156.713 115.200,157.264 115.020,157.400 114.800 C 157.536 114.580,158.087 114.400,158.624 114.400 C 159.161 114.400,159.600 114.220,159.600 114.000 C 159.600 113.780,159.960 113.600,160.400 113.600 C 160.840 113.600,161.200 113.420,161.200 113.200 C 161.200 112.980,161.819 112.800,162.576 112.800 C 163.333 112.800,164.064 112.620,164.200 112.400 C 164.336 112.180,164.977 112.000,165.624 112.000 C 166.271 112.000,166.800 111.820,166.800 111.600 C 166.800 111.380,167.329 111.200,167.976 111.200 C 168.623 111.200,169.264 111.020,169.400 110.800 C 169.536 110.580,170.346 110.400,171.200 110.400 C 172.054 110.400,172.864 110.220,173.000 110.000 C 173.136 109.780,174.032 109.600,174.990 109.600 C 175.949 109.600,176.793 109.440,176.867 109.243 C 177.254 108.207,207.623 107.349,213.939 108.196 C 215.333 108.383,216.231 108.329,216.519 108.041 C 216.761 107.799,217.297 107.600,217.708 107.600 C 219.170 107.600,221.883 105.290,222.960 103.130 C 225.376 98.282,223.296 88.800,219.818 88.800 C 219.478 88.800,219.200 88.620,219.200 88.400 C 219.200 88.180,218.851 88.000,218.424 88.000 C 217.997 88.000,217.536 87.820,217.400 87.600 C 217.264 87.380,215.824 87.200,214.200 87.200 C 212.576 87.200,211.136 87.020,211.000 86.800 C 210.846 86.550,206.929 86.400,200.576 86.400 C 194.059 86.400,190.400 86.544,190.400 86.800 M163.200 178.785 C 162.870 179.007,162.195 179.191,161.700 179.194 C 161.205 179.197,160.800 179.380,160.800 179.600 C 160.800 179.820,160.480 180.000,160.088 180.000 C 159.697 180.000,159.117 180.360,158.800 180.800 C 158.483 181.240,158.048 181.600,157.834 181.600 C 157.244 181.600,155.200 183.676,155.200 184.275 C 155.200 184.564,155.053 184.800,154.874 184.800 C 154.308 184.800,152.800 188.026,152.800 189.238 C 152.800 189.877,152.620 190.400,152.400 190.400 C 152.165 190.400,152.000 191.800,152.000 193.800 C 152.000 195.800,152.165 197.200,152.400 197.200 C 152.620 197.200,152.800 197.740,152.800 198.400 C 152.800 199.060,152.980 199.600,153.200 199.600 C 153.420 199.600,153.600 199.960,153.600 200.400 C 153.600 200.840,153.780 201.200,154.000 201.200 C 154.220 201.200,154.400 201.486,154.400 201.835 C 154.400 202.597,158.678 206.800,159.454 206.800 C 159.754 206.800,160.000 206.980,160.000 207.200 C 160.000 207.420,160.324 207.600,160.720 207.600 C 161.116 207.600,161.665 207.825,161.940 208.100 C 162.580 208.740,170.286 208.783,171.639 208.154 C 172.168 207.908,173.140 207.458,173.800 207.154 C 174.460 206.849,175.238 206.375,175.529 206.100 C 175.819 205.825,176.205 205.600,176.386 205.600 C 176.892 205.600,179.200 203.336,179.200 202.840 C 179.200 202.598,179.380 202.400,179.600 202.400 C 179.820 202.400,180.000 202.130,180.000 201.800 C 180.000 201.470,180.180 201.200,180.400 201.200 C 180.620 201.200,180.800 200.840,180.800 200.400 C 180.800 199.960,180.980 199.600,181.200 199.600 C 181.420 199.600,181.600 199.060,181.600 198.400 C 181.600 197.740,181.780 197.200,182.000 197.200 C 182.235 197.200,182.400 195.800,182.400 193.800 C 182.400 191.800,182.235 190.400,182.000 190.400 C 181.780 190.400,181.600 189.781,181.600 189.024 C 181.600 188.267,181.420 187.536,181.200 187.400 C 180.980 187.264,180.800 186.843,180.800 186.465 C 180.800 186.086,180.440 185.517,180.000 185.200 C 179.560 184.883,179.200 184.427,179.200 184.187 C 179.200 183.654,177.109 181.600,176.566 181.600 C 176.352 181.600,175.917 181.240,175.600 180.800 C 175.283 180.360,174.703 180.000,174.312 180.000 C 173.920 180.000,173.600 179.840,173.600 179.645 C 173.600 178.798,164.325 178.031,163.200 178.785 M228.200 178.800 C 228.064 179.020,227.423 179.200,226.776 179.200 C 226.129 179.200,225.600 179.380,225.600 179.600 C 225.600 179.820,225.306 180.000,224.947 180.000 C 224.588 180.000,224.003 180.316,223.647 180.703 C 223.291 181.089,222.525 181.649,221.944 181.947 C 221.363 182.244,220.644 182.963,220.347 183.544 C 220.049 184.125,219.489 184.891,219.103 185.247 C 218.716 185.603,218.400 186.188,218.400 186.547 C 218.400 186.906,218.220 187.200,218.000 187.200 C 217.780 187.200,217.600 187.729,217.600 188.376 C 217.600 189.023,217.420 189.664,217.200 189.800 C 216.980 189.936,216.800 191.657,216.800 193.624 C 216.800 195.741,216.963 197.200,217.200 197.200 C 217.420 197.200,217.600 197.740,217.600 198.400 C 217.600 199.060,217.780 199.600,218.000 199.600 C 218.220 199.600,218.400 199.960,218.400 200.400 C 218.400 200.840,218.580 201.200,218.800 201.200 C 219.020 201.200,219.200 201.486,219.200 201.835 C 219.200 202.597,223.478 206.800,224.254 206.800 C 224.554 206.800,224.800 206.980,224.800 207.200 C 224.800 207.420,225.124 207.600,225.520 207.600 C 225.916 207.600,226.465 207.825,226.740 208.100 C 227.701 209.061,236.265 208.730,238.485 207.646 C 240.656 206.586,244.800 202.773,244.800 201.835 C 244.800 201.486,244.980 201.200,245.200 201.200 C 245.420 201.200,245.600 200.840,245.600 200.400 C 245.600 199.960,245.780 199.600,246.000 199.600 C 246.220 199.600,246.400 199.060,246.400 198.400 C 246.400 197.740,246.580 197.200,246.800 197.200 C 247.035 197.200,247.200 195.800,247.200 193.800 C 247.200 191.800,247.035 190.400,246.800 190.400 C 246.580 190.400,246.400 189.871,246.400 189.224 C 246.400 188.577,246.220 187.936,246.000 187.800 C 245.780 187.664,245.597 187.248,245.593 186.876 C 245.577 185.412,241.206 180.833,238.794 179.755 C 235.815 178.424,228.822 177.793,228.200 178.800 M127.200 240.800 C 127.200 241.020,126.933 241.200,126.607 241.200 C 125.779 241.200,122.400 244.518,122.400 245.331 C 122.400 245.699,122.220 246.000,122.000 246.000 C 121.780 246.000,121.600 246.619,121.600 247.376 C 121.600 248.133,121.420 248.864,121.200 249.000 C 120.980 249.136,120.800 249.957,120.800 250.824 C 120.800 251.691,120.980 252.400,121.200 252.400 C 121.420 252.400,121.600 253.120,121.600 254.000 C 121.600 254.880,121.780 255.600,122.000 255.600 C 122.220 255.600,122.400 255.960,122.400 256.400 C 122.400 256.840,122.580 257.200,122.800 257.200 C 123.020 257.200,123.200 257.436,123.200 257.725 C 123.200 258.013,123.560 258.636,124.000 259.108 C 124.440 259.580,124.800 260.244,124.800 260.583 C 124.800 260.922,124.980 261.200,125.200 261.200 C 125.420 261.200,125.600 261.520,125.600 261.912 C 125.600 262.303,125.960 262.883,126.400 263.200 C 126.840 263.517,127.200 264.033,127.200 264.346 C 127.200 265.033,129.276 268.398,129.700 268.399 C 129.865 268.400,130.000 268.627,130.000 268.904 C 130.000 270.310,146.859 287.200,148.262 287.200 C 148.521 287.200,148.793 287.350,148.867 287.534 C 149.109 288.142,154.578 291.600,155.296 291.600 C 155.683 291.600,156.000 291.780,156.000 292.000 C 156.000 292.220,156.320 292.400,156.712 292.400 C 157.103 292.400,157.683 292.760,158.000 293.200 C 158.317 293.640,158.897 294.000,159.288 294.000 C 159.680 294.000,160.000 294.180,160.000 294.400 C 160.000 294.620,160.360 294.800,160.800 294.800 C 161.240 294.800,161.600 294.980,161.600 295.200 C 161.600 295.420,161.949 295.600,162.376 295.600 C 162.803 295.600,163.264 295.780,163.400 296.000 C 163.536 296.220,163.997 296.400,164.424 296.400 C 164.851 296.400,165.200 296.580,165.200 296.800 C 165.200 297.020,165.560 297.200,166.000 297.200 C 166.440 297.200,166.800 297.380,166.800 297.600 C 166.800 297.820,167.340 298.000,168.000 298.000 C 168.660 298.000,169.200 298.180,169.200 298.400 C 169.200 298.620,169.639 298.800,170.176 298.800 C 170.713 298.800,171.264 298.980,171.400 299.200 C 171.536 299.420,172.076 299.600,172.600 299.600 C 173.124 299.600,173.664 299.780,173.800 300.000 C 173.936 300.220,174.577 300.400,175.224 300.400 C 175.871 300.400,176.400 300.580,176.400 300.800 C 176.400 301.020,177.019 301.200,177.776 301.200 C 178.533 301.200,179.264 301.380,179.400 301.600 C 179.536 301.820,180.321 302.000,181.144 302.000 C 181.967 302.000,182.811 302.163,183.020 302.363 C 183.614 302.931,194.950 304.036,200.000 304.019 C 205.183 304.001,211.809 303.542,212.180 303.175 C 212.389 302.969,213.503 302.800,214.656 302.800 C 215.809 302.800,216.864 302.620,217.000 302.400 C 217.136 302.180,218.047 302.000,219.024 302.000 C 220.001 302.000,220.800 301.820,220.800 301.600 C 220.800 301.380,221.430 301.200,222.200 301.200 C 222.970 301.200,223.600 301.020,223.600 300.800 C 223.600 300.580,224.140 300.400,224.800 300.400 C 225.460 300.400,226.000 300.220,226.000 300.000 C 226.000 299.780,226.540 299.600,227.200 299.600 C 227.860 299.600,228.400 299.420,228.400 299.200 C 228.400 298.980,228.940 298.800,229.600 298.800 C 230.260 298.800,230.800 298.620,230.800 298.400 C 230.800 298.180,231.239 298.000,231.776 298.000 C 232.313 298.000,232.864 297.820,233.000 297.600 C 233.136 297.380,233.597 297.200,234.024 297.200 C 234.451 297.200,234.800 297.020,234.800 296.800 C 234.800 296.580,235.160 296.400,235.600 296.400 C 236.040 296.400,236.400 296.220,236.400 296.000 C 236.400 295.780,236.760 295.600,237.200 295.600 C 237.640 295.600,238.000 295.420,238.000 295.200 C 238.000 294.980,238.360 294.800,238.800 294.800 C 239.240 294.800,239.600 294.620,239.600 294.400 C 239.600 294.180,239.960 294.000,240.400 294.000 C 240.840 294.000,241.200 293.820,241.200 293.600 C 241.200 293.380,241.470 293.200,241.800 293.200 C 242.130 293.200,242.400 293.020,242.400 292.800 C 242.400 292.580,242.760 292.400,243.200 292.400 C 243.640 292.400,244.000 292.234,244.000 292.032 C 244.000 291.829,244.540 291.545,245.200 291.400 C 245.860 291.255,246.400 290.993,246.400 290.817 C 246.400 290.641,246.940 290.273,247.600 290.000 C 248.260 289.727,248.800 289.375,248.800 289.219 C 248.800 289.063,249.295 288.681,249.900 288.370 C 250.505 288.060,251.270 287.526,251.600 287.184 C 251.930 286.842,252.830 286.128,253.600 285.596 C 254.370 285.065,255.477 284.129,256.060 283.515 C 256.644 282.902,257.231 282.400,257.366 282.400 C 257.681 282.400,264.400 275.689,264.400 275.374 C 264.400 275.244,265.120 274.446,266.000 273.600 C 266.880 272.754,267.600 271.869,267.600 271.631 C 267.600 271.394,267.780 271.200,268.000 271.200 C 268.220 271.200,268.400 271.018,268.400 270.796 C 268.400 270.574,268.940 269.828,269.600 269.137 C 270.260 268.446,270.800 267.721,270.800 267.524 C 270.800 267.327,271.160 266.780,271.600 266.308 C 272.040 265.836,272.400 265.213,272.400 264.925 C 272.400 264.636,272.539 264.400,272.709 264.400 C 272.879 264.400,273.914 262.645,275.008 260.500 C 276.102 258.355,277.132 256.540,277.298 256.467 C 277.464 256.393,277.600 256.078,277.600 255.767 C 277.600 255.455,277.780 255.200,278.000 255.200 C 278.220 255.200,278.400 254.840,278.400 254.400 C 278.400 253.960,278.580 253.600,278.800 253.600 C 279.033 253.600,279.200 252.267,279.200 250.400 C 279.200 248.533,279.033 247.200,278.800 247.200 C 278.580 247.200,278.400 246.966,278.400 246.680 C 278.400 245.947,277.460 244.007,277.103 244.003 C 276.940 244.001,276.267 243.435,275.607 242.744 C 273.669 240.717,272.690 240.400,268.354 240.400 C 265.985 240.400,264.400 240.560,264.400 240.800 C 264.400 241.020,264.040 241.200,263.600 241.200 C 263.160 241.200,262.800 241.380,262.800 241.600 C 262.800 241.820,262.621 242.000,262.403 242.000 C 261.782 242.000,260.000 243.685,260.000 244.272 C 260.000 244.562,259.865 244.801,259.700 244.803 C 259.341 244.807,258.400 246.744,258.400 247.480 C 258.400 247.766,258.220 248.000,258.000 248.000 C 257.780 248.000,257.600 248.270,257.600 248.600 C 257.600 248.930,257.420 249.200,257.200 249.200 C 256.980 249.200,256.800 249.470,256.800 249.800 C 256.800 250.130,256.620 250.400,256.400 250.400 C 256.180 250.400,256.000 250.720,256.000 251.112 C 256.000 251.503,255.640 252.083,255.200 252.400 C 254.760 252.717,254.400 253.209,254.400 253.492 C 254.400 253.775,253.860 254.572,253.200 255.263 C 252.540 255.954,252.000 256.663,252.000 256.840 C 252.000 257.185,248.361 261.175,245.883 263.548 C 241.487 267.755,240.315 268.800,239.992 268.800 C 239.796 268.800,239.186 269.250,238.636 269.800 C 238.086 270.350,237.398 270.800,237.106 270.800 C 236.815 270.800,236.317 271.160,236.000 271.600 C 235.683 272.040,235.143 272.400,234.800 272.400 C 234.457 272.400,233.917 272.760,233.600 273.200 C 233.283 273.640,232.703 274.000,232.312 274.000 C 231.920 274.000,231.600 274.180,231.600 274.400 C 231.600 274.620,231.240 274.800,230.800 274.800 C 230.360 274.800,230.000 274.980,230.000 275.200 C 230.000 275.420,229.640 275.600,229.200 275.600 C 228.760 275.600,228.400 275.780,228.400 276.000 C 228.400 276.220,228.130 276.400,227.800 276.400 C 227.470 276.400,227.200 276.580,227.200 276.800 C 227.200 277.020,226.705 277.201,226.100 277.202 C 225.495 277.204,224.550 277.435,224.000 277.715 C 223.450 277.996,222.190 278.466,221.200 278.759 C 220.210 279.052,219.040 279.437,218.600 279.615 C 217.636 280.006,215.930 280.390,213.897 280.674 C 213.071 280.790,212.295 281.045,212.174 281.242 C 212.052 281.439,210.793 281.600,209.376 281.600 C 207.925 281.600,206.800 281.775,206.800 282.000 C 206.800 282.255,203.608 282.400,198.024 282.400 C 192.604 282.400,189.153 282.247,189.000 282.000 C 188.864 281.780,187.874 281.600,186.800 281.600 C 185.726 281.600,184.736 281.420,184.600 281.200 C 184.464 280.980,183.744 280.800,183.000 280.800 C 182.256 280.800,181.536 280.620,181.400 280.400 C 181.264 280.180,180.634 280.000,180.000 280.000 C 179.366 280.000,178.736 279.820,178.600 279.600 C 178.464 279.380,178.091 279.200,177.772 279.200 C 177.453 279.200,176.428 278.855,175.496 278.432 C 174.563 278.010,173.350 277.544,172.800 277.397 C 171.170 276.960,169.600 276.227,169.600 275.902 C 169.600 275.736,169.330 275.600,169.000 275.600 C 168.670 275.600,168.400 275.420,168.400 275.200 C 168.400 274.980,168.040 274.800,167.600 274.800 C 167.160 274.800,166.800 274.620,166.800 274.400 C 166.800 274.180,166.480 274.000,166.088 274.000 C 165.697 274.000,165.117 273.640,164.800 273.200 C 164.483 272.760,163.943 272.400,163.600 272.400 C 163.257 272.400,162.717 272.040,162.400 271.600 C 162.083 271.160,161.579 270.800,161.280 270.800 C 160.982 270.800,160.046 270.080,159.200 269.200 C 158.354 268.320,157.551 267.600,157.414 267.600 C 157.181 267.600,153.380 263.764,149.100 259.210 C 148.055 258.098,147.200 256.960,147.200 256.682 C 147.200 256.404,146.840 255.917,146.400 255.600 C 145.960 255.283,145.600 254.743,145.600 254.400 C 145.600 254.057,145.240 253.517,144.800 253.200 C 144.360 252.883,144.000 252.303,144.000 251.912 C 144.000 251.520,143.820 251.200,143.600 251.200 C 143.380 251.200,143.200 250.930,143.200 250.600 C 143.200 250.270,143.020 250.000,142.800 250.000 C 142.580 250.000,142.400 249.730,142.400 249.400 C 142.400 249.070,142.220 248.800,142.000 248.800 C 141.780 248.800,141.600 248.512,141.600 248.160 C 141.600 246.408,138.341 242.000,137.046 242.000 C 136.691 242.000,136.400 241.820,136.400 241.600 C 136.400 241.380,136.051 241.200,135.624 241.200 C 135.197 241.200,134.736 241.020,134.600 240.800 C 134.464 240.580,132.743 240.400,130.776 240.400 C 128.659 240.400,127.200 240.563,127.200 240.800 " stroke="none" fill="#040404" fill-rule="evenodd"></path><path id="path1" d="" stroke="none" fill="#080404" fill-rule="evenodd"></path><path id="path2" d="" stroke="none" fill="#080404" fill-rule="evenodd"></path><path id="path3" d="" stroke="none" fill="#080404" fill-rule="evenodd"></path><path id="path4" d="" stroke="none" fill="#080404" fill-rule="evenodd"></path></g></svg>